<svg width="85" height="27" viewBox="0 0 85 27" fill="none" xmlns="http://www.w3.org/2000/svg">
<g filter="url(#filter0_b_139_44)">
<path d="M0 8C0 3.58172 3.58172 0 8 0H76.2926C80.7109 0 84.2926 3.58172 84.2926 8V19C84.2926 23.4183 80.7109 27 76.2926 27H8.00001C3.58173 27 0 23.4183 0 19V8Z" fill="#01001D" fill-opacity="0.54"/>
<path d="M0.25 8C0.25 3.71979 3.71979 0.25 8 0.25H76.2926C80.5728 0.25 84.0426 3.71979 84.0426 8V19C84.0426 23.2802 80.5728 26.75 76.2926 26.75H8.00001C3.7198 26.75 0.25 23.2802 0.25 19V8Z" stroke="white" stroke-width="0.5"/>
</g>
<path d="M35.7238 16.3571V9.37712H40.7838V10.4271H36.9738V12.2171H39.5438V13.2671H36.9738V15.3071H40.8238V16.3571H35.7238ZM45.4977 13.5071L47.4277 16.3571H46.0777L45.5477 15.6071L44.7577 14.3771L43.9677 15.6071L43.4277 16.3571H42.1177L44.0377 13.5271L42.2077 10.8371H43.5477L43.9777 11.4271L44.7677 12.6571L45.5577 11.4171L45.9777 10.8371H47.2977L45.4977 13.5071ZM51.8316 16.3571C51.4782 16.3571 51.1749 16.2838 50.9216 16.1371C50.6683 15.9905 50.4749 15.7838 50.3416 15.5171C50.2082 15.2438 50.1416 14.9271 50.1416 14.5671V9.83712L51.3416 9.23712V14.5671C51.3416 14.7338 51.3649 14.8804 51.4116 15.0071C51.4582 15.1338 51.5482 15.2304 51.6816 15.2971C51.8216 15.3571 52.0216 15.3871 52.2816 15.3871H53.8516V16.3571H51.8316ZM48.9116 11.8071V10.8371H52.9416V11.8071H48.9116ZM59.3855 13.3371V12.6471C59.3855 12.3738 59.3022 12.1538 59.1355 11.9871C58.9755 11.8138 58.7422 11.7271 58.4355 11.7271C58.0622 11.7271 57.7222 11.8638 57.4155 12.1371C57.1088 12.4104 56.8522 12.8404 56.6455 13.4271L56.4955 12.3071C56.6488 11.9604 56.8288 11.6704 57.0355 11.4371C57.2488 11.1971 57.4888 11.0171 57.7555 10.8971C58.0288 10.7771 58.3255 10.7171 58.6455 10.7171C59.2122 10.7171 59.6755 10.8838 60.0355 11.2171C60.3955 11.5504 60.5755 12.0271 60.5755 12.6471V13.3371H59.3855ZM55.6655 16.3571V10.8371H56.7955L56.8555 12.0071V16.3571H55.6655ZM65.9094 16.3571L65.8594 15.1871V12.7071C65.8594 12.3604 65.7427 12.0871 65.5094 11.8871C65.2761 11.6871 64.9527 11.5871 64.5394 11.5871C64.1461 11.5871 63.8227 11.6771 63.5694 11.8571C63.3227 12.0371 63.1827 12.2838 63.1494 12.5971H61.9894C62.0227 12.2038 62.1494 11.8671 62.3694 11.5871C62.5961 11.3071 62.8961 11.0938 63.2694 10.9471C63.6494 10.7938 64.0861 10.7171 64.5794 10.7171C65.0861 10.7171 65.5227 10.7971 65.8894 10.9571C66.2627 11.1171 66.5494 11.3504 66.7494 11.6571C66.9494 11.9638 67.0494 12.3371 67.0494 12.7771V16.3571H65.9094ZM63.9894 16.4771C63.6294 16.4771 63.3094 16.4105 63.0294 16.2771C62.7561 16.1438 62.5427 15.9538 62.3894 15.7071C62.2361 15.4604 62.1594 15.1738 62.1594 14.8471C62.1594 14.2804 62.3794 13.8404 62.8194 13.5271C63.2594 13.2071 63.8694 13.0471 64.6494 13.0471H65.9994V13.9071L64.6094 13.9171C64.2094 13.9171 63.8961 13.9938 63.6694 14.1471C63.4427 14.2938 63.3294 14.5071 63.3294 14.7871C63.3294 15.0071 63.4094 15.1838 63.5694 15.3171C63.7361 15.4504 63.9627 15.5171 64.2494 15.5171C64.6161 15.5171 64.9427 15.4204 65.2294 15.2271C65.5227 15.0271 65.7594 14.7538 65.9394 14.4071L66.0694 15.2471C65.8961 15.6538 65.6327 15.9605 65.2794 16.1671C64.9261 16.3738 64.4961 16.4771 63.9894 16.4771ZM71.3333 16.4771C70.84 16.4771 70.4033 16.3938 70.0233 16.2271C69.65 16.0538 69.36 15.8105 69.1533 15.4971C68.9466 15.1838 68.84 14.8138 68.8333 14.3871H69.9533C69.9466 14.7604 70.0666 15.0538 70.3133 15.2671C70.5666 15.4804 70.9066 15.5871 71.3333 15.5871C71.6733 15.5871 71.9466 15.5238 72.1533 15.3971C72.36 15.2705 72.4633 15.0971 72.4633 14.8771C72.4633 14.7038 72.4 14.5638 72.2733 14.4571C72.1466 14.3504 71.9766 14.2671 71.7633 14.2071C71.5566 14.1471 71.3266 14.0938 71.0733 14.0471C70.8266 13.9938 70.5766 13.9338 70.3233 13.8671C70.07 13.7938 69.8366 13.7004 69.6233 13.5871C69.4166 13.4671 69.25 13.3104 69.1233 13.1171C68.9966 12.9238 68.9333 12.6771 68.9333 12.3771C68.9333 12.0504 69.0233 11.7638 69.2033 11.5171C69.39 11.2638 69.6533 11.0671 69.9933 10.9271C70.3333 10.7871 70.7333 10.7171 71.1933 10.7171C71.8866 10.7171 72.4466 10.8804 72.8733 11.2071C73.3 11.5271 73.53 11.9704 73.5633 12.5371H72.4533C72.4333 12.2371 72.31 12.0071 72.0833 11.8471C71.8633 11.6871 71.5666 11.6071 71.1933 11.6071C70.8533 11.6071 70.59 11.6738 70.4033 11.8071C70.2233 11.9404 70.1333 12.1104 70.1333 12.3171C70.1333 12.4904 70.1966 12.6238 70.3233 12.7171C70.4566 12.8104 70.6266 12.8838 70.8333 12.9371C71.04 12.9904 71.27 13.0404 71.5233 13.0871C71.7766 13.1271 72.0266 13.1804 72.2733 13.2471C72.5266 13.3138 72.7566 13.4071 72.9633 13.5271C73.1766 13.6404 73.3466 13.7971 73.4733 13.9971C73.6066 14.1971 73.6733 14.4571 73.6733 14.7771C73.6733 15.3038 73.46 15.7205 73.0333 16.0271C72.6133 16.3271 72.0466 16.4771 71.3333 16.4771Z" fill="white"/>
<g clip-path="url(#clip0_139_44)">
<path d="M18.1893 11.7833L16.305 5.56458L14.4208 11.7833H8.55084L13.3429 15.2113L11.5207 21.1113L16.305 17.4656L21.0971 21.1113L19.2749 15.2113L24.0592 11.7833H18.1893Z" fill="white"/>
</g>
<defs>
<filter id="filter0_b_139_44" x="-43.2" y="-43.2" width="170.693" height="113.4" filterUnits="userSpaceOnUse" color-interpolation-filters="sRGB">
<feFlood flood-opacity="0" result="BackgroundImageFix"/>
<feGaussianBlur in="BackgroundImageFix" stdDeviation="21.6"/>
<feComposite in2="SourceAlpha" operator="in" result="effect1_backgroundBlur_139_44"/>
<feBlend mode="normal" in="SourceGraphic" in2="effect1_backgroundBlur_139_44" result="shape"/>
</filter>
<clipPath id="clip0_139_44">
<rect width="18.6101" height="18.6561" fill="white" transform="translate(7 4.00989)"/>
</clipPath>
</defs>
</svg>
