<svg width="85" height="27" viewBox="0 0 85 27" fill="none" xmlns="http://www.w3.org/2000/svg">
<g filter="url(#filter0_b_139_33)">
<path d="M0 8C0 3.58172 3.58172 0 8 0H76.2926C80.7109 0 84.2926 3.58172 84.2926 8V19C84.2926 23.4183 80.7109 27 76.2926 27H8.00001C3.58173 27 0 23.4183 0 19V8Z" fill="#01001D" fill-opacity="0.54"/>
<path d="M0.25 8C0.25 3.71979 3.71979 0.25 8 0.25H76.2926C80.5728 0.25 84.0426 3.71979 84.0426 8V19C84.0426 23.2802 80.5728 26.75 76.2926 26.75H8.00001C3.7198 26.75 0.25 23.2802 0.25 19V8Z" stroke="white" stroke-width="0.5"/>
</g>
<path d="M42.7505 16.4771C42.1305 16.4771 41.5872 16.3271 41.1205 16.0271C40.6605 15.7271 40.3038 15.3071 40.0505 14.7671C39.7972 14.2271 39.6705 13.5938 39.6705 12.8671C39.6705 12.1538 39.8005 11.5271 40.0605 10.9871C40.3205 10.4405 40.6805 10.0171 41.1405 9.71715C41.6072 9.41048 42.1438 9.25715 42.7505 9.25715C43.2305 9.25715 43.6572 9.35048 44.0305 9.53715C44.4038 9.72381 44.7072 9.99381 44.9405 10.3471C45.1738 10.6938 45.3138 11.1105 45.3605 11.5971H44.3905C44.3372 11.1105 44.1605 10.7238 43.8605 10.4371C43.5672 10.1505 43.1905 10.0071 42.7305 10.0071C42.3305 10.0071 41.9672 10.1238 41.6405 10.3571C41.3205 10.5905 41.0638 10.9205 40.8705 11.3471C40.6838 11.7671 40.5905 12.2738 40.5905 12.8671C40.5905 13.4871 40.6872 14.0105 40.8805 14.4371C41.0738 14.8571 41.3372 15.1771 41.6705 15.3971C42.0105 15.6171 42.3872 15.7271 42.8005 15.7271C43.1738 15.7271 43.5038 15.6571 43.7905 15.5171C44.0838 15.3771 44.3205 15.2038 44.5005 14.9971V13.4071L43.1805 13.4471L43.2105 12.6871H45.3605V15.2571C45.0872 15.6371 44.7205 15.9371 44.2605 16.1571C43.8072 16.3705 43.3038 16.4771 42.7505 16.4771ZM50.7344 16.3571L50.6944 15.0271V12.8071C50.6944 12.3738 50.5544 12.0338 50.2744 11.7871C49.9944 11.5338 49.6144 11.4071 49.1344 11.4071C48.6677 11.4071 48.2844 11.5171 47.9844 11.7371C47.6911 11.9505 47.5311 12.2471 47.5044 12.6271H46.6944C46.7211 12.2338 46.8411 11.9005 47.0544 11.6271C47.2744 11.3471 47.5644 11.1338 47.9244 10.9871C48.2844 10.8338 48.6944 10.7571 49.1544 10.7571C49.6344 10.7571 50.0511 10.8405 50.4044 11.0071C50.7577 11.1738 51.0311 11.4138 51.2244 11.7271C51.4177 12.0338 51.5144 12.4038 51.5144 12.8371V16.3571H50.7344ZM48.6744 16.4771C48.3144 16.4771 47.9977 16.4138 47.7244 16.2871C47.4511 16.1605 47.2377 15.9805 47.0844 15.7471C46.9377 15.5071 46.8644 15.2238 46.8644 14.8971C46.8644 14.3305 47.0811 13.8905 47.5144 13.5771C47.9477 13.2638 48.5577 13.1071 49.3444 13.1071H50.8244V13.7471H49.3044C48.7977 13.7471 48.4011 13.8438 48.1144 14.0371C47.8277 14.2305 47.6844 14.5038 47.6844 14.8571C47.6844 15.1505 47.7877 15.3805 47.9944 15.5471C48.2011 15.7071 48.4711 15.7871 48.8044 15.7871C49.2377 15.7871 49.6177 15.6671 49.9444 15.4271C50.2777 15.1871 50.5477 14.8605 50.7544 14.4471L50.8544 15.0871C50.6744 15.5271 50.4011 15.8705 50.0344 16.1171C49.6677 16.3571 49.2144 16.4771 48.6744 16.4771ZM57.7283 16.3571V12.3071C57.7283 12.0338 57.6783 11.8238 57.5783 11.6771C57.485 11.5305 57.3416 11.4571 57.1483 11.4571C56.875 11.4571 56.6316 11.6271 56.4183 11.9671C56.205 12.3071 56.0616 12.8238 55.9883 13.5171L55.8983 12.6371C55.9383 12.0371 56.095 11.5738 56.3683 11.2471C56.6416 10.9205 56.965 10.7571 57.3383 10.7571C57.705 10.7571 57.9916 10.8871 58.1983 11.1471C58.405 11.4071 58.5083 11.7771 58.5083 12.2571V16.3571H57.7283ZM53.0483 16.3571V10.8771H53.7783L53.8183 11.9571V16.3571H53.0483ZM55.3883 16.3571V12.3071C55.3883 12.0271 55.335 11.8171 55.2283 11.6771C55.1283 11.5305 54.9783 11.4571 54.7783 11.4571C54.4983 11.4571 54.255 11.6305 54.0483 11.9771C53.8416 12.3238 53.7016 12.8371 53.6283 13.5171L53.5983 12.6171C53.625 12.2238 53.7016 11.8905 53.8283 11.6171C53.9616 11.3371 54.1283 11.1238 54.3283 10.9771C54.535 10.8305 54.7516 10.7571 54.9783 10.7571C55.3583 10.7571 55.6483 10.8905 55.8483 11.1571C56.055 11.4238 56.1583 11.7905 56.1583 12.2571V16.3571H55.3883ZM62.4422 16.4771C61.8822 16.4771 61.3989 16.3638 60.9922 16.1371C60.5856 15.9038 60.2722 15.5738 60.0522 15.1471C59.8389 14.7138 59.7322 14.2005 59.7322 13.6071C59.7322 13.0138 59.8422 12.5071 60.0622 12.0871C60.2822 11.6605 60.5956 11.3338 61.0022 11.1071C61.4089 10.8738 61.8956 10.7571 62.4622 10.7571C63.3156 10.7571 63.9589 10.9905 64.3922 11.4571C64.8256 11.9238 65.0189 12.5671 64.9722 13.3871H60.3922V12.7371L64.1222 12.7571C64.0956 12.3571 63.9322 12.0405 63.6322 11.8071C63.3322 11.5671 62.9422 11.4471 62.4622 11.4471C61.8622 11.4471 61.3956 11.6405 61.0622 12.0271C60.7289 12.4071 60.5622 12.9405 60.5622 13.6271C60.5622 14.0605 60.6356 14.4405 60.7822 14.7671C60.9356 15.0871 61.1522 15.3371 61.4322 15.5171C61.7122 15.6905 62.0489 15.7771 62.4422 15.7771C62.9089 15.7771 63.2989 15.6671 63.6122 15.4471C63.9322 15.2205 64.1289 14.9138 64.2022 14.5271H65.0322C64.9322 15.1338 64.6522 15.6105 64.1922 15.9571C63.7322 16.3038 63.1489 16.4771 62.4422 16.4771ZM69.1361 16.4771C68.6561 16.4771 68.2361 16.3938 67.8761 16.2271C67.5161 16.0605 67.2361 15.8238 67.0361 15.5171C66.8428 15.2038 66.7428 14.8305 66.7361 14.3971H67.5261C67.5328 14.8371 67.6828 15.1838 67.9761 15.4371C68.2695 15.6905 68.6528 15.8171 69.1261 15.8171C69.5461 15.8171 69.8828 15.7371 70.1361 15.5771C70.3895 15.4171 70.5161 15.2005 70.5161 14.9271C70.5161 14.7138 70.4461 14.5438 70.3061 14.4171C70.1728 14.2905 69.9961 14.1905 69.7761 14.1171C69.5628 14.0438 69.3228 13.9805 69.0561 13.9271C68.7961 13.8738 68.5361 13.8138 68.2761 13.7471C68.0161 13.6805 67.7761 13.5971 67.5561 13.4971C67.3428 13.3905 67.1661 13.2471 67.0261 13.0671C66.8928 12.8805 66.8261 12.6405 66.8261 12.3471C66.8261 12.0405 66.9128 11.7705 67.0861 11.5371C67.2595 11.2971 67.5061 11.1071 67.8261 10.9671C68.1528 10.8271 68.5395 10.7571 68.9861 10.7571C69.6661 10.7571 70.2061 10.9138 70.6061 11.2271C71.0128 11.5405 71.2328 11.9671 71.2661 12.5071H70.4761C70.4561 12.1605 70.3128 11.8938 70.0461 11.7071C69.7861 11.5138 69.4328 11.4171 68.9861 11.4171C68.5528 11.4171 68.2228 11.5038 67.9961 11.6771C67.7761 11.8505 67.6661 12.0638 67.6661 12.3171C67.6661 12.5105 67.7328 12.6638 67.8661 12.7771C67.9995 12.8838 68.1761 12.9705 68.3961 13.0371C68.6161 13.0971 68.8561 13.1505 69.1161 13.1971C69.3828 13.2371 69.6461 13.2905 69.9061 13.3571C70.1661 13.4238 70.4028 13.5171 70.6161 13.6371C70.8361 13.7505 71.0128 13.9071 71.1461 14.1071C71.2795 14.3005 71.3461 14.5571 71.3461 14.8771C71.3461 15.3771 71.1428 15.7705 70.7361 16.0571C70.3361 16.3371 69.8028 16.4771 69.1361 16.4771Z" fill="white"/>
<path d="M22.6207 7.86346C21.4686 7.86346 20.531 8.55829 20.531 9.41211C20.531 10.2659 21.4686 10.9608 22.6207 10.9608C23.7729 10.9608 24.7105 10.2659 24.7105 9.41211C24.7105 8.55829 23.7729 7.86346 22.6207 7.86346ZM23.3173 11.0142V14.058H21.9241V11.0152C21.6817 11.0534 21.4425 11.1097 21.2099 11.1876L15.7487 13.0095C15.282 13.1654 14.9791 13.5088 14.9596 13.9068C14.9401 14.3079 15.2095 14.6698 15.6657 14.8525L20.3201 16.7188C21.0403 17.0078 21.8315 17.1523 22.6221 17.1523C23.4127 17.1523 24.2025 17.0073 24.9227 16.7188L29.5771 14.8525C30.0326 14.6698 30.3027 14.3079 30.2832 13.9068C30.263 13.5088 29.9601 13.1654 29.4927 13.0095L24.0316 11.1866C23.7989 11.1086 23.5597 11.0524 23.3173 11.0142ZM19.4861 13.5418C20.0628 13.5418 20.531 13.7731 20.531 14.058C20.531 14.343 20.0628 14.5743 19.4861 14.5743C18.9093 14.5743 18.4412 14.343 18.4412 14.058C18.4412 13.7731 18.9093 13.5418 19.4861 13.5418ZM15.2059 15.8698C15.0746 15.8735 14.9583 15.9532 14.9583 16.0624V16.4405C14.9583 16.7265 15.1767 16.988 15.5229 17.115L20.0398 18.7715C20.8597 19.0725 21.7395 19.2232 22.6207 19.2232C23.5012 19.2232 24.3811 19.0725 25.2016 18.7715L29.724 17.113C30.066 16.9875 30.2832 16.7289 30.2832 16.4465V16.0634C30.2832 15.9178 30.075 15.8238 29.9022 15.893C28.7835 16.3421 25.5853 17.6272 25.5853 17.6272C24.6749 17.9921 23.6503 18.1847 22.6207 18.1847C21.5912 18.1847 20.5666 17.9921 19.6561 17.6272C19.6561 17.6272 16.4579 16.3421 15.3392 15.893C15.296 15.8756 15.2496 15.8686 15.2059 15.8698Z" fill="white"/>
<defs>
<filter id="filter0_b_139_33" x="-43.2" y="-43.2" width="170.693" height="113.4" filterUnits="userSpaceOnUse" color-interpolation-filters="sRGB">
<feFlood flood-opacity="0" result="BackgroundImageFix"/>
<feGaussianBlur in="BackgroundImageFix" stdDeviation="21.6"/>
<feComposite in2="SourceAlpha" operator="in" result="effect1_backgroundBlur_139_33"/>
<feBlend mode="normal" in="SourceGraphic" in2="effect1_backgroundBlur_139_33" result="shape"/>
</filter>
</defs>
</svg>
