<svg width="85" height="27" viewBox="0 0 85 27" fill="none" xmlns="http://www.w3.org/2000/svg">
<g filter="url(#filter0_b_139_38)">
<path d="M0 8C0 3.58172 3.58172 0 8 0H76.2926C80.7109 0 84.2926 3.58172 84.2926 8V19C84.2926 23.4183 80.7109 27 76.2926 27H8.00001C3.58173 27 0 23.4183 0 19V8Z" fill="white"/>
<path d="M8 0.5H76.2926C80.4347 0.5 83.7926 3.85787 83.7926 8V19C83.7926 23.1421 80.4347 26.5 76.2926 26.5H8.00001C3.85788 26.5 0.5 23.1421 0.5 19V8C0.5 3.85786 3.85786 0.5 8 0.5Z" stroke="white"/>
</g>
<path d="M47.8396 16.3572V9.37718H49.0996V16.3572H47.8396ZM43.7496 16.3572V9.37718H45.0096V16.3572H43.7496ZM44.8496 13.2672V12.2172H47.9896V13.2672H44.8496ZM53.0235 16.4772C52.4435 16.4772 51.9435 16.3605 51.5235 16.1272C51.1102 15.8938 50.7902 15.5638 50.5635 15.1372C50.3435 14.7038 50.2335 14.1905 50.2335 13.5972C50.2335 12.9972 50.3435 12.4838 50.5635 12.0572C50.7902 11.6305 51.1102 11.3005 51.5235 11.0672C51.9435 10.8338 52.4435 10.7172 53.0235 10.7172C53.8902 10.7172 54.5702 10.9738 55.0635 11.4872C55.5569 11.9938 55.8035 12.6972 55.8035 13.5972C55.8035 14.1905 55.6902 14.7038 55.4635 15.1372C55.2435 15.5638 54.9235 15.8938 54.5035 16.1272C54.0902 16.3605 53.5969 16.4772 53.0235 16.4772ZM53.0235 15.4972C53.5102 15.4972 53.8935 15.3272 54.1735 14.9872C54.4602 14.6472 54.6035 14.1838 54.6035 13.5972C54.6035 13.0038 54.4602 12.5405 54.1735 12.2072C53.8935 11.8672 53.5102 11.6972 53.0235 11.6972C52.5235 11.6972 52.1335 11.8672 51.8535 12.2072C51.5735 12.5405 51.4335 13.0038 51.4335 13.5972C51.4335 14.1838 51.5735 14.6472 51.8535 14.9872C52.1335 15.3272 52.5235 15.4972 53.0235 15.4972ZM61.3174 16.3572V12.3772C61.3174 12.1638 61.2808 11.9972 61.2074 11.8772C61.1408 11.7572 61.0308 11.6972 60.8774 11.6972C60.6641 11.6972 60.4741 11.8372 60.3074 12.1172C60.1474 12.3905 60.0308 12.8372 59.9574 13.4572L59.8674 12.6472C59.8608 12.0405 59.9841 11.5672 60.2374 11.2272C60.4974 10.8872 60.8241 10.7172 61.2174 10.7172C61.5708 10.7172 61.8541 10.8505 62.0674 11.1172C62.2874 11.3838 62.3974 11.7672 62.3974 12.2672V16.3572H61.3174ZM56.8574 16.3572V10.8372H57.8974L57.9374 11.8972V16.3572H56.8574ZM59.0874 16.3572V12.3772C59.0874 12.1505 59.0474 11.9805 58.9674 11.8672C58.8941 11.7538 58.7808 11.6972 58.6274 11.6972C58.4008 11.6972 58.2108 11.8438 58.0574 12.1372C57.9041 12.4305 57.7908 12.8705 57.7174 13.4572L57.7074 12.6072C57.7074 12.2138 57.7674 11.8772 57.8874 11.5972C58.0141 11.3105 58.1741 11.0938 58.3674 10.9472C58.5608 10.7938 58.7708 10.7172 58.9974 10.7172C59.3641 10.7172 59.6508 10.8572 59.8574 11.1372C60.0641 11.4105 60.1674 11.7805 60.1674 12.2472V16.3572H59.0874ZM66.2914 16.4772C65.7114 16.4772 65.2114 16.3638 64.7914 16.1372C64.3714 15.9038 64.048 15.5705 63.8214 15.1372C63.6014 14.7038 63.4914 14.1872 63.4914 13.5872C63.4914 12.9872 63.6047 12.4738 63.8314 12.0472C64.058 11.6138 64.3847 11.2838 64.8114 11.0572C65.238 10.8305 65.748 10.7172 66.3414 10.7172C67.2614 10.7172 67.938 10.9738 68.3714 11.4872C68.8114 12.0005 69.0014 12.7038 68.9414 13.5972H64.4414L64.4514 12.7272L67.7214 12.7372C67.6947 12.4172 67.5547 12.1605 67.3014 11.9672C67.048 11.7738 66.728 11.6772 66.3414 11.6772C65.7947 11.6772 65.3814 11.8472 65.1014 12.1872C64.8214 12.5272 64.6814 13.0105 64.6814 13.6372C64.6814 13.9972 64.7447 14.3205 64.8714 14.6072C64.998 14.8872 65.178 15.1072 65.4114 15.2672C65.6514 15.4205 65.9447 15.4972 66.2914 15.4972C66.6847 15.4972 67.0114 15.4038 67.2714 15.2172C67.538 15.0305 67.7014 14.7805 67.7614 14.4672H68.9614C68.8814 15.0872 68.6014 15.5772 68.1214 15.9372C67.648 16.2972 67.038 16.4772 66.2914 16.4772Z" fill="#01001D"/>
<g clip-path="url(#clip0_139_38)">
<path d="M20.2103 20.4206V15.4945H23.4944V20.4206H27.5996V13.8524H30.0627L21.8524 6.4631L13.6421 13.8524H16.1052V20.4206H20.2103Z" fill="#01001D"/>
</g>
<defs>
<filter id="filter0_b_139_38" x="-43.2" y="-43.2" width="170.693" height="113.4" filterUnits="userSpaceOnUse" color-interpolation-filters="sRGB">
<feFlood flood-opacity="0" result="BackgroundImageFix"/>
<feGaussianBlur in="BackgroundImageFix" stdDeviation="21.6"/>
<feComposite in2="SourceAlpha" operator="in" result="effect1_backgroundBlur_139_38"/>
<feBlend mode="normal" in="SourceGraphic" in2="effect1_backgroundBlur_139_38" result="shape"/>
</filter>
<clipPath id="clip0_139_38">
<rect x="12" y="4" width="19.7048" height="19.7048" fill="white"/>
</clipPath>
</defs>
</svg>
